<?xml version="1.0" encoding="utf-8"?>
<!-- Generator: Adobe Illustrator 27.5.0, SVG Export Plug-In . SVG Version: 6.00 Build 0)  -->
<svg version="1.1" xmlns="http://www.w3.org/2000/svg" xmlns:xlink="http://www.w3.org/1999/xlink" x="0px" y="0px"
	 viewBox="0 0 500 500" style="enable-background:new 0 0 500 500;" xml:space="preserve">
<g id="BACKGROUND">
	<rect style="fill:#FFFFFF;" width="500" height="500"/>
</g>
<g id="OBJECTS">
	<g>
		<path style="fill:#232343;" d="M466.036,295.593c-2.851-7.317-9.639-12.815-17.715-14.349
			c-36.032-6.849-86.525-25.88-88.134-26.489c-3.018-1.396-6.049-2.902-9.052-4.456c9.438-6.616,12.741-14.915,13.525-22.002
			c0.63-5.691-1.109-11.239-4.896-15.622c-3.869-4.478-9.491-7.167-15.427-7.378c-11.492-0.418-23.584,3.623-25.137,4.16
			c-1.648,0.114-3.202,0.269-4.737,0.479c-6.426,0.877-12.656,0.83-18.577-0.109c-41.147-41.113-55.487-86.987-56.078-88.925
			l-0.026,0.007c-2.942-11.153-8.797-21.714-17.215-30.517c-35.282-36.895-87.438-27.541-87.921-27.448
			c-28.062,4.392-49.382,16.225-63.366,35.169c-10.138,13.733-16.249,30.846-18.172,50.859
			c-1.752,2.663-16.439,25.437-20.526,46.182c-0.305,1.548,0.208,3.11,1.372,4.18c0.85,0.781,1.932,1.196,3.046,1.196
			c0.417,0,0.839-0.059,1.254-0.177c0.78-0.223,1.692-0.482,2.694-0.762c2.138,2.363,10.232,10.037,25.156,10.037
			c2.742,0,5.728-0.274,8.938-0.874c6.079,5.761,13.246,10.496,21.31,13.871c3.121,1.306,5.576,2.082,7.032,2.492
			c-12.781,31.956,4.336,71.653,6.36,76.136l0.065,0.125l0.004,0.087l0.168,0.277c0.032,0.052,0.066,0.102,0.098,0.154l0.186,0.358
			l0.035-0.008c11.971,19.532,29.382,34.291,51.775,43.864c0.871,1.484,1.809,2.867,2.79,4.114c1.072,1.367,2.352,2.502,3.786,3.411
			v35.4c-20.457-2.851-36.067,5.429-36.733,5.789c-1.503,0.807-2.601,2.15-3.091,3.785c-0.493,1.639-0.316,3.371,0.496,4.879
			c0.81,1.503,2.156,2.598,3.791,3.085c1.634,0.485,3.359,0.308,4.855-0.498c0.777-0.399,6.982-3.469,16.049-4.511
			c-5.345,3.943-9.265,8.404-11.683,13.307c-1.555,3.162-0.254,7.002,2.902,8.56c0.88,0.434,1.856,0.664,2.825,0.664
			c2.451,0,4.649-1.366,5.736-3.564c5.098-10.321,20.54-15.601,24.061-16.689h5.616c3.523,0,6.389-2.866,6.389-6.389
			c0-3.523-2.866-6.39-6.389-6.39h-2.045v-35.675c1.331-0.4,2.595-0.967,3.768-1.709c23.993,5.708,43.551,4.252,43.706,4.24
			c0.212-0.01,0.421-0.023,0.641-0.037c0.597,0.731,1.229,1.453,1.885,2.149c2.333,2.486,5.267,4.257,8.528,5.18v33.762
			c-23.648-3.477-41.47,6.092-42.223,6.504c-1.622,0.872-2.807,2.323-3.337,4.087c-0.53,1.768-0.34,3.636,0.536,5.259
			c0.875,1.628,2.331,2.815,4.101,3.343c1.767,0.528,3.632,0.334,5.244-0.543c0.954-0.49,8.75-4.344,19.998-5.355
			c-6.674,4.669-11.525,10.021-14.448,15.951c-1.685,3.407-0.284,7.555,3.126,9.248c0.96,0.473,1.986,0.714,3.049,0.714
			c2.647,0,5.02-1.475,6.196-3.851c5.901-11.956,23.808-18.065,27.824-19.304h6.484c3.805,0,6.901-3.096,6.901-6.901
			c0-3.805-3.096-6.901-6.901-6.901h-2.75v-37.305c2.811-1.409,5.225-3.506,7.004-6.116c0.983-1.429,1.869-2.974,2.637-4.598
			c30.829-7.249,51.86-21.656,66.008-36.374c15.706,15.077,33.867,25.539,47.835,32.152l-0.008,0.026
			c0.062,0.02,0.121,0.036,0.182,0.056c13.008,6.144,22.336,8.94,22.563,9.005c4.812,1.118,9.441,1.681,13.806,1.681
			c1.078,0,2.141-0.035,3.186-0.104c7.95-0.524,14.829-5.086,18.4-12.2c3.284-6.542,3.111-14.039-0.403-20.334
			c7.512,0.407,14.294-0.956,20.225-4.071c6.349-3.335,10.833-9.338,11.995-16.059C467.856,303.106,467.469,299.273,466.036,295.593
			z M350.118,287.644c7.216-14.152,9.825-25.849,10.579-29.97c6.673,2.483,35.156,12.896,63.069,20.426
			c0.803,0.456,7.36,4.334,11.179,11.165c2.424,4.337,2.819,9.496,1.083,14.155c-1.797,4.821-5.639,8.606-10.541,10.383
			c-6.679,2.421-14.579,2.693-23.484,0.824C385.703,308.239,365.956,299.122,350.118,287.644z M344.246,207.85
			c5.228,0.186,10.179,2.554,13.585,6.495c3.317,3.839,4.84,8.694,4.29,13.67c-0.771,6.962-4.24,15.197-14.524,21.523
			c-0.628,0.385-1.272,0.762-1.939,1.126c-0.101,0.055-0.198,0.112-0.3,0.167c-0.788,0.422-1.605,0.829-2.446,1.222
			c-0.106,0.05-0.215,0.098-0.323,0.148c-1.76,0.807-3.631,1.552-5.616,2.23c-0.075,0.026-0.152,0.051-0.228,0.076
			c-0.984,0.332-1.994,0.65-3.032,0.951c-0.026,0.007-0.05,0.015-0.076,0.023c-1.062,0.306-2.154,0.594-3.27,0.867
			c-0.127,0.031-0.259,0.06-0.387,0.091c-0.938,0.225-1.898,0.435-2.873,0.636c-0.253,0.052-0.504,0.105-0.76,0.155
			c-1.121,0.222-2.26,0.432-3.43,0.623l-2.342,0.383l-4.672,0.763l6.974,1.372c0.225,0.044,5.551,1.152,9.024,7.11
			c2.551,4.377,2.876,9.516,1.298,14.106c-0.106,0.309-0.238,0.61-0.361,0.914c-0.08,0.197-0.147,0.399-0.235,0.594
			c-0.185,0.411-0.395,0.812-0.611,1.21c-0.044,0.081-0.079,0.166-0.124,0.247c-0.064,0.113-0.141,0.22-0.207,0.332
			c-1.326,2.242-3.151,4.244-5.451,5.801c-6.91,4.68-20.103,9.424-43.718,5.454l-5.734-0.861l4.997,3.286
			c0.006,0.003,0.592,0.279,1.246,0.968c1.204,1.267,1.667,2.992,1.271,4.735c-0.418,1.837-1.714,3.332-3.47,3.999
			c-0.063,0.024-0.131,0.048-0.195,0.072c-0.568,0.214-1.14,0.414-1.714,0.606c-0.264,0.088-0.534,0.175-0.811,0.262
			c-0.35,0.111-0.702,0.214-1.055,0.317c-2.464,0.714-5.383,1.36-8.763,1.795c-0.192,0.024-0.384,0.048-0.577,0.071
			c-0.328,0.039-0.656,0.078-0.992,0.114c-12.302,1.232-24.909-1.074-35.078-3.992c0.283,0.02,0.563,0.028,0.845,0.046
			c0.627,0.039,1.253,0.076,1.876,0.101c0.76,0.031,1.514,0.046,2.268,0.057c0.391,0.005,0.787,0.029,1.176,0.029
			c0.266,0,0.528-0.012,0.793-0.015c0.416-0.004,0.829-0.013,1.243-0.023c0.813-0.02,1.621-0.054,2.427-0.098
			c0.391-0.022,0.783-0.04,1.172-0.067c1.001-0.07,1.996-0.16,2.985-0.268c0.167-0.018,0.336-0.029,0.503-0.049
			c1.141-0.133,2.272-0.295,3.396-0.478c0.348-0.057,0.693-0.124,1.04-0.186c0.794-0.141,1.583-0.292,2.368-0.458
			c0.393-0.083,0.785-0.171,1.176-0.26c0.771-0.177,1.537-0.369,2.299-0.571c0.346-0.092,0.693-0.179,1.037-0.275
			c1.087-0.306,2.167-0.63,3.234-0.987c7.187-2.402,11.605-9.543,10.656-16.854c0.281,0.06,0.588,0.125,0.921,0.191
			c4.987,0.999,15.583,2.546,25.28,0.227c6.594-1.578,11.426-6.738,12.611-13.465c1.167-6.623-1.561-13.019-7.118-16.688
			c-0.464-0.307-0.945-0.608-1.444-0.901c-0.094-0.055-0.197-0.107-0.292-0.162c-0.404-0.232-0.811-0.463-1.236-0.686
			c7.24-0.415,19.64-2.134,29.258-8.591c0.12-0.08,0.242-0.155,0.361-0.237c0.319-0.22,0.632-0.45,0.944-0.681
			c0.345-0.253,0.685-0.513,1.02-0.78c0.227-0.181,0.455-0.361,0.677-0.549c0.575-0.483,1.14-0.98,1.682-1.507
			c5.973-5.812,7.557-14.22,4.133-21.943c-0.194-0.437-0.405-0.861-0.625-1.278c-0.061-0.115-0.124-0.228-0.186-0.342
			c-0.181-0.329-0.37-0.651-0.567-0.967c-0.054-0.087-0.107-0.176-0.162-0.262c-0.257-0.399-0.525-0.787-0.806-1.163
			c-0.027-0.036-0.055-0.07-0.082-0.105c-0.261-0.344-0.533-0.677-0.813-1.002c-0.058-0.067-0.116-0.134-0.175-0.2
			c-0.637-0.718-1.318-1.386-2.042-1.998c-0.026-0.022-0.052-0.042-0.078-0.064c-0.347-0.29-0.703-0.567-1.067-0.832
			c-0.035-0.026-0.07-0.052-0.106-0.077c-0.78-0.559-1.599-1.06-2.451-1.499c-0.044-0.023-0.089-0.045-0.134-0.067
			c-0.401-0.203-0.809-0.393-1.224-0.569c-0.026-0.011-0.051-0.023-0.077-0.034c-0.449-0.187-0.904-0.359-1.367-0.512
			c-0.017-0.006-0.034-0.01-0.051-0.016c-0.281-0.092-0.563-0.183-0.848-0.263C330.816,208.934,337.716,207.622,344.246,207.85z
			 M314.81,212.467c1.534-0.21,3.086-0.366,4.74-0.476c7.316-0.467,14.004,3.631,17.017,10.427
			c2.335,5.266,2.622,13.042-3.579,19.075c-13.02,12.669-37.75,11.732-37.996,11.717l-8.32-0.367l7.827,2.845
			c3.034,1.103,5.689,2.402,7.893,3.862c4.694,3.101,6.998,8.508,6.011,14.113c-1.005,5.709-5.102,10.085-10.689,11.422
			c-12.333,2.946-26.767-0.825-26.911-0.864l-2.204-0.538l0.663,2.194c0.016,0.07,0.033,0.14,0.041,0.165
			c1.668,6.533-2.137,13.36-8.662,15.54c-9.582,3.209-20.048,4.284-31.1,3.195c-1.208-0.119-2.41-0.272-3.605-0.458
			c-3.584-0.558-7.1-1.413-10.491-2.554c-20.317-6.846-35.169-22.977-39.73-43.15c-1.235-5.485-1.694-11.114-1.378-16.826
			c0.158-2.844,0.531-5.711,1.074-8.59c0.112-0.594,0.209-1.186,0.337-1.781c0.002-0.011,0.005-0.021,0.008-0.032
			c0.188-0.864,0.399-1.72,0.628-2.57c0.035-0.132,0.075-0.261,0.112-0.393c0.217-0.78,0.446-1.555,0.697-2.322
			c0.016-0.049,0.032-0.097,0.048-0.145c4.06-12.288,12.446-22.795,23.602-29.36c2.126-0.971,4.189-2.006,6.137-3.079
			c2.52-1.065,5.094-1.916,7.71-2.56c0.119-0.029,0.238-0.06,0.357-0.088c0.756-0.18,1.516-0.34,2.278-0.485
			c0.121-0.023,0.24-0.051,0.362-0.073c0.828-0.151,1.66-0.279,2.496-0.389c0.285-0.037,0.572-0.063,0.858-0.095
			c0.55-0.063,1.102-0.121,1.655-0.165c0.358-0.029,0.717-0.05,1.076-0.071c0.502-0.03,1.005-0.053,1.51-0.068
			c0.359-0.011,0.718-0.021,1.078-0.024c0.71-0.006,1.421-0.003,2.135,0.02c0.075,0.002,0.149,0.001,0.224,0.004
			c2.216,0.081,4.373,0.28,6.465,0.562c5.705,0.768,10.898,2.179,15.29,3.731c8.811,3.115,14.412,6.78,14.521,6.852
			c8.08,5.087,17.079,8.781,26.748,10.977c0.992,0.224,1.995,0.417,3.005,0.59c0.114,0.02,0.224,0.047,0.338,0.066l3.958,0.667
			l-0.186-0.185C304,213.308,309.337,213.213,314.81,212.467z M291.417,208.933c-0.409-0.097-0.815-0.201-1.222-0.304
			c-0.603-0.153-1.207-0.303-1.804-0.467c-0.519-0.143-1.032-0.3-1.547-0.453c-0.608-0.18-1.218-0.357-1.819-0.549
			c-0.513-0.164-1.018-0.343-1.526-0.516c-0.589-0.201-1.18-0.397-1.762-0.61c-0.525-0.192-1.042-0.4-1.561-0.602
			c-0.553-0.215-1.109-0.424-1.656-0.65c-0.539-0.223-1.068-0.463-1.6-0.696c-0.518-0.227-1.041-0.447-1.552-0.684
			c-0.523-0.243-1.035-0.503-1.552-0.756c-0.514-0.252-1.032-0.495-1.539-0.757c-0.407-0.21-0.803-0.436-1.206-0.653
			c-1.594-0.859-3.163-1.755-4.686-2.716c-0.371-0.246-5.499-3.604-13.658-6.643c-4.831-1.801-10.73-3.484-17.332-4.347
			c-2.127-0.278-4.323-0.477-6.585-0.56c-0.667-0.024-1.331-0.036-1.995-0.036c-0.086,0-0.17,0.006-0.256,0.007
			c-0.652,0.003-1.301,0.025-1.948,0.051c-0.235,0.009-0.472,0.009-0.707,0.022c-0.873,0.047-1.74,0.118-2.603,0.206
			c-0.255,0.026-0.508,0.063-0.763,0.094c-0.644,0.076-1.286,0.158-1.924,0.256c-0.245,0.038-0.49,0.082-0.734,0.124
			c-0.686,0.115-1.368,0.243-2.046,0.384c-0.082,0.017-0.165,0.029-0.246,0.046c12.833-9.218,21.079-21.175,24.592-35.668
			c0.004-0.017,0.009-0.033,0.013-0.05c0.25-1.036,0.481-2.084,0.682-3.146c0.964-5.067,1.304-10.179,1.02-15.291
			C248.683,150.403,263.62,180.262,291.417,208.933z M37.55,197.895c-0.661,0.191-1.36,0.023-1.867-0.443
			c-0.511-0.47-0.727-1.127-0.594-1.804c3.176-16.118,12.959-33.578,17.694-41.364c-0.231,8.463,0.972,16.699,3.442,24.421
			c1.942,6.285,4.24,10.678,5.527,12.865c-6.183,1.449-12.071,2.977-17.051,4.331c-1.323,0.354-2.552,0.691-3.613,0.995
			C39.819,197.25,38.634,197.585,37.55,197.895z M43.783,198.803c0.608-0.167,1.234-0.338,1.888-0.515
			c6.302-1.68,14.621-3.715,17.436-4.399c2.749,4.564,5.998,8.814,9.708,12.657C56.633,208.964,47.139,201.956,43.783,198.803z
			 M105.964,225.589c16.604,1.794,19.654-7.37,19.654-7.37c-9.149,7.568-21.541,4.401-23.377,3.875
			c-1.312-0.426-2.975-1.021-4.903-1.827c-7.179-3.005-13.615-7.134-19.175-12.123l0.017-0.003l-1.795-1.696
			c-0.063-0.059-5.927-5.639-10.597-13.183l0.132-0.03l-1.052-1.508l-0.449-0.78l-0.044,0.01c-0.08-0.131-0.168-0.277-0.266-0.442
			c-1.414-2.543-2.675-5.176-3.764-7.892c-2.845-7.292-5.802-18.687-4.726-33.098c3.109-33.164,19.413-74.661,79.462-84.06
			c0.508-0.096,51.334-9.176,85.639,26.696c12.034,12.584,18.645,28.883,18.692,45.227c0,0.043,0.001,0.085,0.001,0.128
			c0,0.668-0.012,1.336-0.033,2.004c-0.021,0.621-0.048,1.241-0.088,1.861c-0.028,0.438-0.064,0.875-0.101,1.313
			c-0.071,0.814-0.15,1.628-0.254,2.44c-0.032,0.253-0.072,0.506-0.107,0.759c-0.127,0.897-0.267,1.794-0.434,2.689
			c-0.012,0.067-0.022,0.134-0.035,0.201c-0.023,0.121-0.052,0.24-0.076,0.361c-0.164,0.838-0.348,1.665-0.544,2.486
			c-0.106,0.441-0.219,0.878-0.334,1.314c-0.12,0.457-0.249,0.909-0.379,1.361c-4.529,15.586-15.202,28.084-31.471,37.012
			c-1.989,0.855-3.918,1.833-5.786,2.914c-4.702,2.174-9.794,4.092-15.282,5.735c-0.046,0.014-0.092,0.028-0.138,0.042
			c-2.037,0.608-4.128,1.178-6.271,1.711c-6.996,1.739-13.633,4.249-19.798,7.448c-0.146,0.076-0.295,0.146-0.441,0.222
			c-0.069,0.036-0.135,0.076-0.204,0.112c-8.002,4.237-15.191,9.651-21.291,16.095c-2.675,2.827-5.438,6.101-8.128,9.826
			c-0.015,0.02-0.03,0.041-0.044,0.061c-0.365,0.506-0.728,1.021-1.09,1.544c-0.029,0.042-0.058,0.083-0.086,0.125
			c-0.353,0.513-0.705,1.033-1.054,1.562c-0.033,0.05-0.065,0.1-0.098,0.15c-0.347,0.527-0.691,1.061-1.033,1.604
			c-0.033,0.053-0.066,0.106-0.099,0.159c-0.342,0.546-0.683,1.099-1.02,1.662c-0.028,0.046-0.055,0.094-0.083,0.14
			c-0.344,0.576-0.685,1.16-1.022,1.753c-0.009,0.016-0.018,0.033-0.028,0.049c-2.449,4.315-4.711,9.088-6.637,14.337
			c-0.05,0.135-0.101,0.268-0.15,0.404c-0.211,0.584-0.415,1.177-0.618,1.773c-0.075,0.22-0.152,0.438-0.226,0.66
			c-0.184,0.553-0.361,1.114-0.537,1.676c-0.086,0.274-0.172,0.546-0.256,0.823c-0.162,0.535-0.319,1.077-0.473,1.621
			c-0.09,0.315-0.18,0.63-0.267,0.948c-0.144,0.525-0.283,1.055-0.419,1.588c-0.09,0.349-0.178,0.699-0.265,1.051
			c-0.127,0.517-0.249,1.038-0.369,1.563c-0.087,0.381-0.172,0.763-0.255,1.148c-0.111,0.512-0.219,1.027-0.323,1.546
			c-0.082,0.411-0.161,0.825-0.239,1.241c-0.095,0.505-0.188,1.011-0.276,1.523c-0.077,0.447-0.149,0.898-0.221,1.349
			c-0.078,0.494-0.157,0.987-0.229,1.487c-0.07,0.486-0.134,0.978-0.198,1.47c-0.063,0.479-0.127,0.957-0.183,1.442
			c-0.063,0.536-0.117,1.08-0.172,1.622c-0.046,0.452-0.095,0.902-0.136,1.359c-0.055,0.615-0.099,1.24-0.145,1.865
			c-0.029,0.397-0.063,0.789-0.087,1.189c-0.049,0.785-0.084,1.582-0.118,2.381c-0.01,0.249-0.026,0.494-0.035,0.745
			c-0.038,1.071-0.062,2.152-0.071,3.247C104.767,281.315,95.609,250.781,105.964,225.589z M183.474,393.619
			c2.114,0,3.834,1.72,3.834,3.834c0,2.113-1.72,3.834-3.834,3.834h-5.997l-0.182,0.055c-3.314,1.006-20.133,6.605-25.79,18.057
			c-0.653,1.32-1.973,2.141-3.445,2.141c-0.578,0-1.164-0.139-1.693-0.4c-1.894-0.934-2.674-3.241-1.741-5.138
			c2.77-5.616,7.728-10.647,14.735-14.954l4.04-2.483l-4.741,0.117c-12.15,0.299-20.904,4.629-21.9,5.142
			c-0.901,0.486-1.938,0.592-2.919,0.302c-0.979-0.293-1.786-0.949-2.271-1.848c-0.488-0.907-0.594-1.947-0.298-2.932
			c0.294-0.978,0.952-1.784,1.856-2.269c0.654-0.353,16.26-8.63,36.592-5.292l1.485,0.244v-37.063
			c0.176,0.07,0.356,0.13,0.535,0.194c0.087,0.031,0.173,0.065,0.26,0.094c0.396,0.133,0.796,0.25,1.2,0.35
			c0.093,0.023,0.188,0.042,0.282,0.063c0.338,0.077,0.678,0.143,1.02,0.197c0.1,0.016,0.199,0.034,0.299,0.048
			c0.412,0.057,0.826,0.098,1.242,0.122c0.088,0.005,0.176,0.005,0.263,0.008c0.351,0.014,0.702,0.015,1.055,0.005
			c0.106-0.003,0.212-0.005,0.319-0.01c0.397-0.019,0.794-0.049,1.191-0.098v37.682H183.474z M256.508,403.781
			c2.396,0,4.345,1.949,4.345,4.345c0,2.396-1.949,4.345-4.345,4.345h-6.866l-0.182,0.055c-3.802,1.156-23.092,7.583-29.552,20.673
			c-0.741,1.497-2.237,2.427-3.905,2.427c-0.667,0-1.313-0.152-1.916-0.448c-2.146-1.066-3.029-3.679-1.968-5.825
			c3.264-6.621,9.156-12.509,17.512-17.502l4.063-2.428l-4.732,0.053c-14.329,0.16-24.716,5.292-25.898,5.9
			c-1.018,0.554-2.19,0.676-3.3,0.344c-1.113-0.333-2.03-1.079-2.581-2.107c-0.552-1.023-0.672-2.199-0.338-3.314
			c0.333-1.109,1.078-2.022,2.107-2.575c0.182-0.101,18.547-9.963,42.069-5.995l1.491,0.252v-36.218
			c0.089,0.013,0.178,0.019,0.267,0.03c0.189,0.024,0.378,0.045,0.567,0.064c0.174,0.017,0.348,0.032,0.522,0.044
			c0.186,0.013,0.372,0.023,0.559,0.03c0.177,0.007,0.353,0.013,0.53,0.015c0.082,0.001,0.164,0.007,0.247,0.007
			c0.051,0,0.102-0.008,0.154-0.008c0.589-0.005,1.177-0.034,1.762-0.092c0.08-0.008,0.16-0.019,0.24-0.028
			c0.604-0.068,1.204-0.159,1.798-0.284c0.041-0.009,0.081-0.02,0.122-0.029c0.6-0.13,1.194-0.289,1.779-0.477
			c0.032-0.01,0.064-0.018,0.096-0.029c0.016-0.005,0.032-0.009,0.048-0.014v38.791H256.508z M262.211,350.858l-0.617,0.143
			l-0.26,0.577c-0.765,1.698-1.666,3.307-2.683,4.783c-1.672,2.455-3.986,4.39-6.697,5.597c-3.237,1.458-6.941,1.821-10.436,1.023
			l-0.009-0.002c-3.161-0.711-6.002-2.336-8.218-4.698c-0.249-0.264-0.487-0.537-0.728-0.808c8.946-0.671,11.82-4.248,11.82-4.248
			c-5.596,1.188-11.648,1.818-14.189,2.049l-0.239,0.017c-0.392,0.028-0.777,0.056-1.212,0.077
			c-0.194,0.016-19.64,1.461-43.488-4.303l-0.554-0.134l-0.012,0.008c-1.148-0.34-3.766-1.151-6.741-2.317
			c0,0,1.037,2.064,4.333,3.725c-0.766,0.347-1.566,0.623-2.397,0.815l-0.02,0.004c-0.366,0.084-0.733,0.148-1.101,0.201
			c-2.8,0.397-5.63-0.119-8.094-1.492c-0.035-0.02-0.073-0.035-0.108-0.055l-0.013-0.007c-1.415-0.798-2.651-1.864-3.675-3.169
			c-0.987-1.254-1.929-2.661-2.798-4.179l-0.214-0.373l-0.396-0.169c-22.168-9.391-39.369-23.935-51.13-43.229
			c-0.204-4.508-0.153-8.82,0.116-12.943c0.002-0.024,0.002-0.05,0.004-0.074c0.055-0.837,0.125-1.661,0.198-2.483
			c0.018-0.199,0.03-0.404,0.049-0.602c0.056-0.598,0.126-1.183,0.192-1.773c0.046-0.414,0.085-0.835,0.136-1.245
			c0.046-0.374,0.102-0.739,0.152-1.11c0.082-0.612,0.16-1.227,0.251-1.83c0.027-0.177,0.059-0.348,0.087-0.524
			c3.738-23.81,14.843-40.351,24.69-50.759c6.388-6.752,14.021-12.334,22.553-16.576c5.621-2.794,11.628-5.011,17.94-6.579
			c0.308-0.077,0.609-0.16,0.915-0.238c0.566-0.145,1.132-0.29,1.704-0.444c0.532-0.143,1.058-0.289,1.584-0.437
			c0.311-0.087,0.622-0.176,0.934-0.266c2.447-0.704,4.834-1.454,7.141-2.259c-7.631,6.723-13.473,15.602-16.574,25.886
			c-0.052,0.172-0.098,0.346-0.148,0.519c-0.159,0.544-0.318,1.088-0.461,1.64c-0.198,0.757-0.381,1.519-0.548,2.286
			c-0.233,1.079-0.43,2.157-0.611,3.233c-0.021,0.124-0.05,0.248-0.07,0.372c-0.076,0.467-0.124,0.931-0.19,1.398
			c-0.104,0.734-0.219,1.469-0.299,2.202c-0.02,0.184-0.027,0.367-0.045,0.551c-0.102,1.009-0.193,2.018-0.249,3.023
			c-0.329,5.947,0.149,11.808,1.437,17.519c4.758,21.05,20.236,37.876,41.31,44.976c3.409,1.455,6.694,2.719,9.865,3.821
			c0.141,0.049,0.28,0.094,0.421,0.143c0.891,0.307,1.774,0.603,2.646,0.884c0.226,0.073,0.447,0.14,0.672,0.211
			c0.78,0.247,1.555,0.487,2.32,0.713c0.273,0.081,0.541,0.156,0.812,0.234c0.708,0.204,1.412,0.404,2.107,0.591
			c0.297,0.08,0.591,0.156,0.887,0.234c0.659,0.173,1.314,0.34,1.962,0.498c0.309,0.075,0.615,0.148,0.921,0.22
			c0.624,0.147,1.242,0.288,1.854,0.422c0.312,0.068,0.622,0.134,0.931,0.198c0.597,0.125,1.189,0.244,1.775,0.356
			c0.307,0.059,0.612,0.117,0.916,0.172c0.581,0.106,1.155,0.206,1.724,0.3c0.295,0.049,0.59,0.098,0.882,0.144
			c0.569,0.089,1.131,0.171,1.689,0.249c0.279,0.039,0.56,0.079,0.836,0.115c0.566,0.074,1.124,0.14,1.678,0.202
			c0.255,0.029,0.512,0.06,0.764,0.086c0.574,0.06,1.138,0.111,1.699,0.159c0.221,0.019,0.446,0.041,0.665,0.058
			c0.602,0.047,1.193,0.085,1.78,0.119c0.166,0.01,0.336,0.022,0.502,0.031c0.671,0.035,1.33,0.061,1.981,0.08
			c0.074,0.002,0.151,0.006,0.225,0.008c1.354,0.036,2.661,0.036,3.927,0.008c0.04-0.001,0.083-0.001,0.123-0.002
			c0.523-0.013,1.035-0.033,1.543-0.055c0.102-0.004,0.206-0.007,0.307-0.012c0.487-0.024,0.963-0.054,1.435-0.086
			c0.114-0.008,0.231-0.014,0.344-0.022c0.465-0.034,0.921-0.073,1.372-0.114c0.112-0.01,0.226-0.02,0.337-0.03
			c0.449-0.043,0.888-0.091,1.323-0.142c0.106-0.012,0.214-0.024,0.32-0.037c0.436-0.053,0.864-0.109,1.287-0.168
			c0.094-0.013,0.189-0.026,0.283-0.04c0.427-0.062,0.845-0.127,1.258-0.195c0.081-0.013,0.162-0.027,0.243-0.04
			c0.42-0.071,0.832-0.144,1.237-0.221c0.063-0.012,0.125-0.024,0.187-0.036c0.418-0.08,0.829-0.163,1.23-0.249
			c0.038-0.008,0.075-0.016,0.113-0.024c0.42-0.091,0.832-0.184,1.234-0.279c0.011-0.003,0.021-0.005,0.032-0.008
			c2.549-0.609,4.732-1.308,6.532-1.996c2.555-0.973,4.444-3.151,5.051-5.824c0.447-1.966,0.155-3.923-0.802-5.583
			c22.036,2.974,34.777-1.775,41.679-6.445c1.833-1.242,3.392-2.74,4.691-4.398c1.44-1.837,2.556-3.873,3.292-6.025
			c1.8-5.266,1.418-11.166-1.514-16.194c-1.951-3.336-4.424-5.372-6.507-6.596c1.04-0.213,2.042-0.441,3.027-0.677
			c0.056-0.014,0.111-0.028,0.168-0.042c0.94-0.227,1.852-0.464,2.742-0.711c0.065-0.018,0.129-0.036,0.193-0.054
			c6.032-1.684,10.947-3.799,14.925-6.196c3.161,1.662,6.372,3.256,9.566,4.75c-2.303,10.953-5.841,20.457-9.69,28.411
			c-1.716,3.488-3.709,7.132-6.033,10.845c-3.705,5.921-8.501,12.388-14.628,18.81l-0.328,0.303l0.022,0.021
			C313.617,329.564,292.81,343.788,262.211,350.858z M348.932,289.942c15.897,11.451,35.58,20.555,51.885,26.96l0.04,0.025
			c0.062,0.038,6.2,3.867,9.317,10.239c3.533,7.225,0.566,16.035-6.613,19.639c-6.379,3.2-14.872,3.151-25.238-0.132
			c-13.743-6.506-31.624-16.793-47.094-31.629C333.896,312.31,341.68,303.725,348.932,289.942z M433.085,346.304
			c-3.16,6.296-9.248,10.332-16.283,10.796c-5.027,0.328-10.49-0.18-16.174-1.499c-0.129-0.038-4.382-1.317-11.072-4.008
			c1.04,0.084,2.061,0.134,3.053,0.134c4.549,0,8.593-0.88,12.098-2.639c8.426-4.23,11.908-14.568,7.763-23.045
			c-1.243-2.542-2.887-4.692-4.495-6.416c12.613,4.656,22.11,7.397,24.331,8.021C435.805,333.344,436.108,340.28,433.085,346.304z
			 M464.668,306.55c-1.028,5.943-5.016,11.263-10.665,14.232c-6.153,3.232-13.339,4.438-21.37,3.581l-3-0.318l0.166,0.212
			c-3.718-1.112-10.017-3.088-17.76-5.866c5.194,0.108,9.987-0.616,14.319-2.186c5.609-2.033,10.007-6.367,12.065-11.893
			c1.998-5.361,1.543-11.3-1.248-16.294c-1.924-3.441-4.435-6.164-6.686-8.16c5.97,1.509,11.831,2.846,17.355,3.896
			c7.218,1.372,13.276,6.265,15.81,12.768C464.916,299.761,465.257,303.136,464.668,306.55z"/>
		<path style="fill:#232343;" d="M259.908,245.273c2.962,13.69-20.311,7.07-20.311,7.07c2.984,21.742-28.622,3.172-28.622,3.172
			s28.088,20.238,32.141,0.827c0,0,20.826,4.06,19.362-8.993c0,0,13.93-1.292,12.615-13.308
			C271.489,246.954,259.908,245.273,259.908,245.273z"/>
		<ellipse style="fill:#232343;" cx="125.372" cy="142.783" rx="18.926" ry="22.422"/>
		<g>
			
				<ellipse transform="matrix(0.229 -0.9734 0.9734 0.229 -37.352 220.5253)" style="fill:#FFFFFF;" cx="120.535" cy="133.842" rx="7.774" ry="7.774"/>
		</g>
	</g>
</g>
</svg>
