<?xml version="1.0" standalone="no"?>
<!DOCTYPE svg PUBLIC "-//W3C//DTD SVG 20010904//EN"
 "http://www.w3.org/TR/2001/REC-SVG-20010904/DTD/svg10.dtd">
<svg version="1.0" xmlns="http://www.w3.org/2000/svg"
 width="300.000000pt" height="164.000000pt" viewBox="0 0 300.000000 164.000000"
 preserveAspectRatio="xMidYMid meet">
<metadata>
Created by potrace 1.10, written by Peter Selinger 2001-2011
</metadata>
<g transform="translate(0.000000,164.000000) scale(0.100000,-0.100000)"
fill="#000000" stroke="none">
<path d="M1030 1550 c0 -5 5 -10 11 -10 5 0 7 5 4 10 -3 6 -8 10 -11 10 -2 0
-4 -4 -4 -10z"/>
<path d="M536 1449 c-37 -29 -32 -37 22 -31 41 4 52 0 80 -23 l32 -27 0 29 c0
64 -80 95 -134 52z"/>
<path d="M210 1453 c-20 -7 -60 -44 -60 -55 0 -5 9 -4 19 2 30 16 66 12 94
-10 31 -25 37 -25 37 -1 0 39 -54 77 -90 64z"/>
<path d="M385 1386 c-33 -8 -76 -20 -95 -28 -19 -8 -53 -13 -76 -10 -32 3 -46
-1 -71 -22 -17 -14 -36 -40 -43 -58 -7 -18 -27 -62 -43 -97 -53 -112 -47 -198
20 -272 49 -54 107 -70 226 -63 111 6 133 -3 164 -66 17 -34 25 -76 33 -172
16 -210 40 -279 120 -352 68 -60 136 -80 249 -73 150 9 230 51 430 227 170
149 248 180 310 123 16 -16 51 -66 76 -113 52 -95 101 -151 160 -183 33 -17
57 -21 130 -21 113 0 168 21 302 112 89 60 103 67 148 67 42 0 60 -7 113 -42
73 -48 128 -60 192 -43 54 14 77 30 101 67 44 67 7 176 -91 267 -84 77 -154
108 -258 114 -99 5 -126 -3 -297 -96 -109 -60 -125 -66 -180 -67 -79 0 -109
21 -184 134 -98 146 -166 188 -285 179 -84 -7 -149 -43 -301 -164 -133 -108
-180 -133 -244 -134 -63 0 -104 29 -140 101 -37 73 -48 127 -60 294 -13 164
-37 246 -91 307 -69 79 -192 111 -315 84z m149 -45 c-100 -61 -119 -192 -35
-248 25 -17 46 -22 77 -20 23 1 40 4 38 6 -2 2 11 13 29 25 35 24 70 97 49
104 -7 2 -12 14 -12 27 0 33 -44 65 -90 65 -66 0 -112 -81 -80 -141 26 -48
101 -59 143 -21 16 15 17 15 12 0 -8 -19 -64 -48 -93 -48 -62 0 -112 46 -112
102 0 77 54 138 122 138 32 0 47 -7 74 -34 19 -19 34 -42 34 -52 0 -15 2 -16
9 -5 6 9 14 -2 29 -40 24 -66 29 -98 42 -268 12 -148 9 -156 -51 -181 -16 -7
-29 -19 -29 -26 0 -21 13 -17 58 16 l41 29 16 -49 c9 -26 34 -69 56 -94 33
-38 38 -49 30 -65 -14 -25 -14 -51 -1 -51 5 0 12 15 15 33 7 34 7 34 55 29 27
-2 62 0 79 6 29 10 32 9 46 -19 9 -16 20 -29 25 -29 14 0 12 13 -5 36 -20 27
-19 30 18 52 19 10 64 45 100 76 l67 57 20 -47 c24 -54 37 -111 43 -174 l4
-45 -96 -83 -96 -84 -7 74 c-8 85 -24 136 -39 121 -6 -6 -4 -31 6 -71 9 -34
15 -81 13 -104 -3 -43 -4 -43 -78 -81 -122 -61 -248 -72 -350 -31 l-42 17 31
13 c44 19 112 92 149 162 34 63 37 72 24 72 -4 0 -20 -24 -34 -52 -34 -70 -91
-134 -140 -159 l-40 -21 -34 33 c-60 58 -86 150 -99 347 l-6 94 23 -16 c31
-22 138 -22 138 -1 0 12 -14 15 -65 15 -72 0 -92 12 -127 79 -25 47 -69 61
-188 61 -135 0 -197 27 -236 102 -19 36 -18 118 2 168 l17 41 18 -31 c32 -51
97 -61 155 -23 49 31 69 127 38 171 -9 13 -14 25 -12 27 14 15 126 34 198 34
l85 1 -31 -19z m-291 -22 c28 -14 57 -49 56 -69 0 -10 -3 -9 -11 5 -37 65
-121 56 -143 -15 -18 -56 48 -115 103 -91 l27 11 -24 -20 c-42 -36 -120 -20
-146 30 -20 38 -4 98 35 133 32 29 67 34 103 16z m357 -59 c0 -10 -6 -20 -12
-23 -21 -7 -38 4 -38 23 0 10 6 20 13 23 20 7 37 -4 37 -23z m-372 3 c5 -17
-26 -29 -40 -15 -6 6 -7 15 -3 22 9 14 37 9 43 -7z m439 -54 c10 -24 9 -26 -7
-22 -10 3 -21 0 -24 -6 -4 -6 -1 -9 7 -5 8 3 18 1 21 -5 7 -11 -69 -25 -100
-19 -28 5 -23 31 8 46 15 7 36 24 45 37 20 26 31 20 50 -26z m-393 25 c18 -47
-21 -76 -73 -54 -33 13 -33 30 0 30 10 0 27 9 36 20 21 24 29 25 37 4z m-94
-4 c0 -5 -4 -10 -10 -10 -5 0 -10 5 -10 10 0 6 5 10 10 10 6 0 10 -4 10 -10z
m360 -10 c0 -5 -4 -10 -10 -10 -5 0 -10 5 -10 10 0 6 5 10 10 10 6 0 10 -4 10
-10z m1005 -360 c3 -5 11 -10 16 -10 6 0 7 5 4 10 -4 7 3 8 22 4 45 -11 98
-41 132 -75 48 -47 113 -147 101 -154 -6 -4 -8 -9 -6 -13 6 -10 -74 -112 -108
-136 l-28 -21 -16 25 c-9 14 -31 39 -48 55 l-32 30 11 86 c7 56 7 98 1 119
-19 68 -29 40 -29 -82 l0 -122 -38 -3 c-37 -3 -87 -25 -132 -57 -19 -14 -20
-13 -21 50 -1 50 -8 78 -33 128 -17 35 -31 66 -31 69 0 11 106 72 154 89 59
20 73 22 81 8z m1006 -150 c10 -6 19 -17 19 -24 0 -8 7 -17 16 -20 12 -5 14
-1 9 15 -7 20 -5 20 43 -6 65 -35 113 -86 151 -159 39 -73 39 -106 3 -147 -39
-44 -115 -51 -188 -20 l-51 22 19 56 c23 68 37 223 19 223 -7 0 -11 -18 -11
-46 0 -26 -9 -86 -21 -134 l-20 -88 -32 16 c-51 26 -122 17 -198 -25 -3 -2 -9
27 -12 64 -7 70 -33 163 -46 163 -18 0 -18 -14 -1 -58 10 -26 20 -80 22 -121
l3 -75 -40 -28 c-56 -40 -147 -69 -234 -76 l-75 -5 21 34 c40 66 81 229 58
229 -7 0 -15 -20 -18 -47 -7 -56 -40 -148 -67 -183 l-19 -25 -45 22 c-61 30
-116 82 -146 138 -23 43 -24 47 -8 56 26 15 76 68 106 114 14 22 27 42 29 44
2 3 13 -5 26 -16 29 -27 81 -53 107 -53 11 0 20 -7 20 -15 0 -8 5 -15 10 -15
6 0 10 9 10 20 0 15 7 20 28 20 15 0 60 16 100 35 40 19 72 30 72 25 0 -6 7
-10 15 -10 18 0 20 17 3 23 -13 4 95 63 142 78 37 11 159 10 181 -1z"/>
<path d="M353 1314 c-36 -15 -43 -25 -15 -19 33 7 88 34 67 34 -11 0 -35 -7
-52 -15z"/>
<path d="M560 1023 c-86 -69 -216 -111 -345 -114 -68 -2 -69 -2 -21 -8 69 -10
153 4 245 39 76 30 171 91 171 110 0 13 1 14 -50 -27z"/>
<path d="M612 868 c-20 -27 -42 -78 -42 -100 1 -16 7 -7 20 26 37 94 66 98 99
14 21 -50 21 -51 16 -14 -11 69 -63 111 -93 74z"/>
<path d="M730 690 c0 -9 13 -31 30 -50 37 -44 39 -61 3 -29 -18 15 -16 11 6
-14 34 -36 56 -52 31 -22 -7 8 -8 15 -2 15 13 0 33 -25 26 -32 -3 -3 0 -9 7
-14 8 -5 10 -3 4 6 -5 9 -2 10 14 5 16 -5 6 10 -31 47 -29 30 -61 65 -70 79
-12 16 -17 19 -18 9z"/>
<path d="M1192 639 c-67 -64 -80 -88 -21 -39 30 24 96 101 87 100 -2 0 -32
-28 -66 -61z"/>
<path d="M560 634 c0 -99 54 -249 106 -297 46 -43 49 -31 5 19 -46 52 -75 131
-91 243 -13 90 -20 102 -20 35z"/>
<path d="M702 627 c29 -50 108 -127 129 -127 6 0 -14 22 -43 49 -30 27 -63 65
-73 85 -11 19 -25 38 -31 40 -7 3 1 -19 18 -47z"/>
<path d="M665 640 c3 -5 8 -10 11 -10 2 0 4 5 4 10 0 6 -5 10 -11 10 -5 0 -7
-4 -4 -10z"/>
<path d="M630 610 c0 -5 5 -10 11 -10 5 0 7 5 4 10 -3 6 -8 10 -11 10 -2 0 -4
-4 -4 -10z"/>
<path d="M1189 593 c-13 -16 -12 -17 4 -4 16 13 21 21 13 21 -2 0 -10 -8 -17
-17z"/>
<path d="M1186 565 c-22 -19 -35 -35 -30 -35 9 0 74 57 74 66 0 7 -3 5 -44
-31z"/>
<path d="M1015 539 c-22 -6 -50 -7 -62 -4 -12 3 -25 1 -28 -5 -9 -15 95 -11
130 5 35 15 18 17 -40 4z"/>
<path d="M1242 494 c-41 -31 -71 -58 -68 -61 7 -7 107 61 137 93 37 40 8 26
-69 -32z"/>
<path d="M1038 513 c6 -2 18 -2 25 0 6 3 1 5 -13 5 -14 0 -19 -2 -12 -5z"/>
<path d="M958 503 c12 -2 32 -2 45 0 12 2 2 4 -23 4 -25 0 -35 -2 -22 -4z"/>
<path d="M1078 493 c-10 -2 -18 -9 -18 -14 0 -14 16 -11 30 6 7 8 11 14 9 14
-2 -1 -12 -3 -21 -6z"/>
<path d="M908 468 c10 -9 112 -14 112 -5 0 5 4 6 9 2 5 -3 12 -2 14 2 3 5 -28
8 -68 8 -41 0 -71 -3 -67 -7z"/>
<path d="M1068 361 c-73 -55 -152 -83 -234 -83 -41 0 -74 -1 -74 -2 0 -2 8
-10 17 -17 11 -10 14 -10 9 -1 -4 6 -2 12 3 12 6 0 11 -4 11 -10 0 -9 25 -8
95 5 61 11 201 84 219 114 12 19 -8 11 -46 -18z"/>
<path d="M1464 802 c-56 -20 -109 -50 -100 -59 3 -3 26 7 52 21 26 14 64 29
85 32 22 4 39 10 39 15 0 13 -18 11 -76 -9z"/>
<path d="M1364 778 l-19 -23 23 19 c21 18 27 26 19 26 -2 0 -12 -10 -23 -22z"/>
<path d="M1632 782 c37 -24 77 -72 84 -99 4 -13 10 -20 15 -17 5 3 9 -1 9 -9
0 -14 30 -47 43 -47 4 0 -16 34 -44 75 -50 74 -94 115 -121 115 -7 0 -1 -8 14
-18z"/>
<path d="M1480 626 c-25 -6 -54 -17 -65 -24 -20 -11 -20 -11 2 -12 12 0 24 4
28 9 3 6 26 13 50 17 25 3 48 10 51 15 7 12 -11 10 -66 -5z"/>
<path d="M1620 613 c26 -19 38 -31 76 -78 13 -16 24 -25 24 -19 0 15 -68 104
-80 104 -4 0 -17 3 -27 6 -12 3 -10 -1 7 -13z"/>
<path d="M1705 610 c3 -5 8 -10 11 -10 2 0 4 5 4 10 0 6 -5 10 -11 10 -5 0 -7
-4 -4 -10z"/>
<path d="M1637 569 c7 -7 15 -10 18 -7 3 3 -2 9 -12 12 -14 6 -15 5 -6 -5z"/>
<path d="M2385 690 c-13 -6 -2 -7 30 -3 28 3 52 7 54 9 9 8 -65 2 -84 -6z"/>
<path d="M2330 670 c-8 -5 -10 -10 -5 -10 6 0 17 5 25 10 8 5 11 10 5 10 -5 0
-17 -5 -25 -10z"/>
<path d="M2280 650 c-8 -5 -10 -10 -5 -10 6 0 17 5 25 10 8 5 11 10 5 10 -5 0
-17 -5 -25 -10z"/>
<path d="M2370 646 c-51 -14 -113 -45 -90 -46 8 0 28 7 43 15 37 19 131 34
185 30 23 -2 42 1 42 6 0 13 -127 10 -180 -5z"/>
<path d="M2645 624 c40 -59 31 -119 -23 -148 -20 -11 -22 -15 -9 -16 19 0 67
42 67 60 0 6 4 9 9 6 16 -10 -6 72 -28 103 -31 44 -46 39 -16 -5z"/>
<path d="M2140 575 c-25 -13 -40 -24 -35 -24 6 0 30 11 55 24 25 13 41 24 35
24 -5 0 -30 -11 -55 -24z"/>
<path d="M2175 553 c-16 -9 -57 -27 -89 -38 -52 -20 -56 -23 -32 -27 14 -3 29
-1 32 3 3 5 14 9 24 9 10 0 25 6 32 14 8 7 28 21 46 30 30 16 41 26 25 26 -5
-1 -21 -8 -38 -17z"/>
<path d="M1914 529 c-9 -15 5 -27 41 -33 29 -5 29 -5 -3 6 -21 7 -31 16 -28
25 6 16 0 17 -10 2z"/>
<path d="M1740 459 c0 -22 52 -92 87 -116 31 -22 93 -38 93 -24 0 5 -15 12
-34 15 -45 9 -81 38 -117 95 -16 25 -29 39 -29 30z"/>
<path d="M2326 461 c-10 -4 32 -7 93 -7 61 1 111 4 111 9 0 9 -179 8 -204 -2z"/>
<path d="M2185 408 c-33 -17 -90 -43 -128 -58 -37 -15 -65 -29 -61 -32 10 -10
247 92 259 112 10 16 -6 11 -70 -22z"/>
<path d="M1205 1180 c3 -5 8 -10 11 -10 2 0 4 5 4 10 0 6 -5 10 -11 10 -5 0
-7 -4 -4 -10z"/>
<path d="M1675 1150 c-3 -6 1 -7 9 -4 18 7 21 14 7 14 -6 0 -13 -4 -16 -10z"/>
<path d="M1530 980 c0 -5 5 -10 11 -10 5 0 7 5 4 10 -3 6 -8 10 -11 10 -2 0
-4 -4 -4 -10z"/>
<path d="M2570 950 c0 -5 5 -10 11 -10 5 0 7 5 4 10 -3 6 -8 10 -11 10 -2 0
-4 -4 -4 -10z"/>
<path d="M2915 750 c3 -5 8 -10 11 -10 2 0 4 5 4 10 0 6 -5 10 -11 10 -5 0 -7
-4 -4 -10z"/>
<path d="M278 273 c7 -3 16 -2 19 1 4 3 -2 6 -13 5 -11 0 -14 -3 -6 -6z"/>
<path d="M2410 250 c0 -5 5 -10 11 -10 5 0 7 5 4 10 -3 6 -8 10 -11 10 -2 0
-4 -4 -4 -10z"/>
<path d="M1310 246 c0 -2 9 -6 20 -9 11 -3 18 -1 14 4 -5 9 -34 13 -34 5z"/>
<path d="M2358 213 c7 -3 16 -2 19 1 4 3 -2 6 -13 5 -11 0 -14 -3 -6 -6z"/>
<path d="M2848 153 c7 -3 16 -2 19 1 4 3 -2 6 -13 5 -11 0 -14 -3 -6 -6z"/>
<path d="M130 141 c0 -6 4 -13 10 -16 6 -3 7 1 4 9 -7 18 -14 21 -14 7z"/>
<path d="M1210 136 c0 -2 8 -10 18 -17 15 -13 16 -12 3 4 -13 16 -21 21 -21
13z"/>
<path d="M1200 110 c0 -5 5 -10 11 -10 5 0 7 5 4 10 -3 6 -8 10 -11 10 -2 0
-4 -4 -4 -10z"/>
</g>
</svg>
